# xmcd
# Copyright (C) 1995-1998 Ti Kan
#
# Track frame offsets:
#       150
#       15246
#       31351
#       46409
#       63251
#
# Disc length: 1071 seconds
#
# Revision: 0
# Processed by: cddbd v1.4PL0 Copyright (c) Steve Scherf et al.
# Submitted via: CD-Transfer v1.0
#
DISCID=32042d05
DTITLE=Maes - Du Und Ich
DYEAR=2003
DGENRE=
TTITLE0=Du Und Ich
TTITLE1=Alles
TTITLE2=No Du
TTITLE3=Du Und Ich (Jake Remix)
TTITLE4=Du Und Ich (Mish Mish Remix)
EXTD=
EXTT0=
EXTT1=
EXTT2=
EXTT3=
EXTT4=
PLAYORDER=
